# xmcd
#
# Track frame offsets:
#	183
#	17645
#	44358
#	67295
#	81008
#	112920
#	132420
#	160770
#	183033
#	201433
#	219145
#	233020
#	246833
#	292158
#
# Disc length: 4066 seconds
#
# Revision: 6
# Processed by: cddbd v1.5.2PL0 Copyright (c) Steve Scherf et al.
# Submitted via: audiograbber 1.83.01
#
DISCID=c30fe00e
DTITLE=Axel Zwingenberger - Boogie Woogie Classics
DYEAR=1992
DGENRE=Boogie Woogie
TTITLE0=Pinetop's Blues
TTITLE1=Mr. Freddie Blues
TTITLE2=Honky Tonk Train Blues
TTITLE3=Boogie Woogie Jump
TTITLE4=Suitcase Blues - Part 1 and 2
TTITLE5=Cow Cow Blues
TTITLE6=Boogie Woogie Stomp
TTITLE7=Yancey Special
TTITLE8=Chicago Flyer
TTITLE9=Bass Goin' Crazy
TTITLE10=New Blues On The Dark Side
TTITLE11=The Boogie Rocks
TTITLE12=Roll 'em Pete
TTITLE13=Swanee River Boogie
EXTD=
EXTT0=
EXTT1=
EXTT2=
EXTT3=
EXTT4=
EXTT5=
EXTT6=
EXTT7=
EXTT8=
EXTT9=
EXTT10=
EXTT11=
EXTT12=
EXTT13=
PLAYORDER=
